/* XPM */
static const char * icon_meshr_xpm[] = {
"16 16 51 1",
" 	c None",
".	c #FF00FF",
"+	c #000102",
"@	c #000101",
"#	c #000001",
"$	c #000202",
"%	c #5C8693",
"&	c #618A97",
"*	c #010203",
"=	c #56818E",
"-	c #000000",
";	c #5B8592",
">	c #668E9A",
",	c #6E94A0",
"'	c #010304",
")	c #789CA8",
"!	c #759AA5",
"~	c #507C8A",
"{	c #6B929E",
"]	c #010405",
"^	c #8BAAB5",
"/	c #8CACB6",
"(	c #83A5AF",
"_	c #4C7886",
":	c #89A9B3",
"<	c #020506",
"[	c #A2BCC4",
"}	c #A6BFC7",
"|	c #A0BBC3",
"1	c #98B5BE",
"2	c #020607",
"3	c #020708",
"4	c #030809",
"5	c #010303",
"6	c #7398A4",
"7	c #BBCFD5",
"8	c #D3E0E4",
"9	c #DDE7EA",
"0	c #D1DFE3",
"a	c #020608",
"b	c #BFD2D7",
"c	c #FCFDFD",
"d	c #648C99",
"e	c #BDD0D6",
"f	c #010404",
"g	c #8EADB7",
"h	c #4F7B89",
"i	c #42707E",
"j	c #54808D",
"k	c #628B98",
"l	c #457281",
".....++++@#.....",
"...$$%&*&$=@-...",
"..$;>,')!,$;~-..",
".$;{)]^/^()$;_-.",
".*'):<[}|1^*>@-.",
"$%,<23442<'5$;_-",
"$&6^378907[^$&~-",
"$5)/ab9c9b}/$d--",
"$&'<27890e[^$@~-",
"@;,(<<22<]5*+%_-",
"@$>)f1|}[1:)@=--",
".@$*)'^g^()+@--.",
".#h;$***$$+#hi-.",
"..#_j;+k&;@_i-..",
"...-#_h@h-l--...",
".....------....."};
