/* XPM */
static const char * icon_file_xpm[] = {
"16 16 40 1",
" 	c None",
".	c #FF00FF",
"+	c #28263D",
"@	c #347BD2",
"#	c #EFEFEF",
"$	c #357AD0",
"%	c #3578CA",
"&	c #3677C9",
"*	c #E5E5E4",
"=	c #E3E3E4",
"-	c #E2E2E1",
";	c #E0E1E0",
">	c #3677C7",
",	c #3774C0",
"'	c #CAC9CA",
")	c #C8C8C8",
"!	c #C6C7C6",
"~	c #C5C4C4",
"{	c #3773BE",
"]	c #3871B7",
"^	c #3871B6",
"/	c #3870B4",
"(	c #396DAD",
"_	c #3A6EAE",
":	c #3A6DAC",
"<	c #396DAC",
"[	c #396DAB",
"}	c #396CAB",
"|	c #3A6AA5",
"1	c #3B69A3",
"2	c #3C679B",
"3	c #B3B3B3",
"4	c #3C6599",
"5	c #3D6392",
"6	c #B8B7B8",
"7	c #B7B8B7",
"8	c #B8B8B7",
"9	c #B8B8B8",
"0	c #3D6290",
"a	c #000000",
"..+++++++++++...",
"..+@@+####+$+...",
"..+%&+*=-;+>+...",
"...+,+')!~+{+...",
"..+]^++++++/+...",
"..+(_((:<:[}+...",
"..+|+++++++1+...",
"..+2+33333+4+...",
"..+5+678+9+0+...",
"..+++++++++++...",
"................",
"aaa.aaa.a...aaa.",
"a....a..a...a...",
"aa...a..a...aa..",
"a....a..a...a...",
"a...aaa.aaa.aaa."};
