/* XPM */
static const char * icon_texture_xpm[] = {
"16 16 184 2",
"  	c None",
". 	c #000000",
"+ 	c #195519",
"@ 	c #19552B",
"# 	c #103929",
"$ 	c #195550",
"% 	c #195562",
"& 	c #10394E",
"* 	c #195587",
"= 	c #195599",
"- 	c #103973",
"; 	c #1955BD",
"> 	c #1955CF",
", 	c #103998",
"' 	c #1955F4",
") 	c #195546",
"! 	c #2B5519",
"~ 	c #2B552B",
"{ 	c #1D3929",
"] 	c #2B5550",
"^ 	c #2B5562",
"/ 	c #1D394E",
"( 	c #2B5587",
"_ 	c #2B5599",
": 	c #1D3973",
"< 	c #2B55BD",
"[ 	c #2B55CF",
"} 	c #1D3998",
"| 	c #2B55F4",
"1 	c #2B5546",
"2 	c #293910",
"3 	c #29391D",
"4 	c #293929",
"5 	c #293935",
"6 	c #293942",
"7 	c #29394E",
"8 	c #29395B",
"9 	c #293967",
"0 	c #293973",
"a 	c #29397F",
"b 	c #29398B",
"c 	c #293998",
"d 	c #2939A4",
"e 	c #29392F",
"f 	c #505519",
"g 	c #50552B",
"h 	c #353929",
"i 	c #505550",
"j 	c #505562",
"k 	c #35394E",
"l 	c #505587",
"m 	c #505599",
"n 	c #353973",
"o 	c #5055BD",
"p 	c #5055CF",
"q 	c #353998",
"r 	c #5055F4",
"s 	c #505546",
"t 	c #625519",
"u 	c #62552B",
"v 	c #423929",
"w 	c #625550",
"x 	c #625562",
"y 	c #42394E",
"z 	c #625587",
"A 	c #625599",
"B 	c #423973",
"C 	c #6255BD",
"D 	c #6255CF",
"E 	c #423998",
"F 	c #6255F4",
"G 	c #625546",
"H 	c #4E3910",
"I 	c #4E391D",
"J 	c #4E3929",
"K 	c #4E3935",
"L 	c #4E3942",
"M 	c #4E394E",
"N 	c #4E395B",
"O 	c #4E3967",
"P 	c #4E3973",
"Q 	c #4E397F",
"R 	c #4E398B",
"S 	c #4E3998",
"T 	c #4E39A4",
"U 	c #4E392F",
"V 	c #875519",
"W 	c #87552B",
"X 	c #5B3929",
"Y 	c #875550",
"Z 	c #875562",
"` 	c #5B394E",
" .	c #875587",
"..	c #875599",
"+.	c #5B3973",
"@.	c #8755BD",
"#.	c #8755CF",
"$.	c #5B3998",
"%.	c #8755F4",
"&.	c #875546",
"*.	c #995519",
"=.	c #99552B",
"-.	c #673929",
";.	c #995550",
">.	c #995562",
",.	c #67394E",
"'.	c #995587",
").	c #995599",
"!.	c #673973",
"~.	c #9955BD",
"{.	c #9955CF",
"].	c #673998",
"^.	c #9955F4",
"/.	c #995546",
"(.	c #733910",
"_.	c #73391D",
":.	c #733929",
"<.	c #733935",
"[.	c #733942",
"}.	c #73394E",
"|.	c #73395B",
"1.	c #733967",
"2.	c #733973",
"3.	c #73397F",
"4.	c #73398B",
"5.	c #733998",
"6.	c #7339A4",
"7.	c #73392F",
"8.	c #BD5519",
"9.	c #BD552B",
"0.	c #7F3929",
"a.	c #BD5550",
"b.	c #BD5562",
"c.	c #7F394E",
"d.	c #BD5587",
"e.	c #BD5599",
"f.	c #7F3973",
"g.	c #BD55BD",
"h.	c #BD55CF",
"i.	c #7F3998",
"j.	c #BD55F4",
"k.	c #BD5546",
"l.	c #CF5519",
"m.	c #CF552B",
"n.	c #8B3929",
"o.	c #CF5550",
"p.	c #CF5562",
"q.	c #8B394E",
"r.	c #CF5587",
"s.	c #CF5599",
"t.	c #8B3973",
"u.	c #CF55BD",
"v.	c #CF55CF",
"w.	c #8B3998",
"x.	c #CF55F4",
"y.	c #CF5546",
"z.	c #983910",
"A.	c #98391D",
"B.	c #983929",
"C.	c #983935",
"D.	c #983942",
"E.	c #98394E",
"F.	c #98395B",
"G.	c #983967",
"H.	c #983973",
"I.	c #98397F",
"J.	c #98398B",
"K.	c #983998",
"L.	c #9839A4",
"M.	c #98392F",
"N.	c #F45519",
"O.	c #F4552B",
"P.	c #A43929",
"Q.	c #F45550",
"R.	c #F45562",
"S.	c #A4394E",
"T.	c #F45587",
"U.	c #F45599",
"V.	c #A43973",
"W.	c #F455BD",
"X.	c #F455CF",
"Y.	c #A43998",
"Z.	c #F455F4",
"`.	c #F45546",
". . . . . . . . . . . . . . . . ",
". + @ # $ % & * = - ; > , ' ) . ",
". ! ~ { ] ^ / ( _ : < [ } | 1 . ",
". 2 3 4 5 6 7 8 9 0 a b c d e . ",
". f g h i j k l m n o p q r s . ",
". t u v w x y z A B C D E F G . ",
". H I J K L M N O P Q R S T U . ",
". V W X Y Z `  ...+.@.#.$.%.&.. ",
". *.=.-.;.>.,.'.).!.~.{.].^./.. ",
". (._.:.<.[.}.|.1.2.3.4.5.6.7.. ",
". 8.9.0.a.b.c.d.e.f.g.h.i.j.k.. ",
". l.m.n.o.p.q.r.s.t.u.v.w.x.y.. ",
". z.A.B.C.D.E.F.G.H.I.J.K.L.M.. ",
". N.O.P.Q.R.S.T.U.V.W.X.Y.Z.`.. ",
". N.O.P.Q.R.S.T.U.V.W.X.Y.Z.`.. ",
". . . . . . . . . . . . . . . . "};
