/* XPM */
static const char * icon_folder_xpm[] = {
"16 16 71 1",
" 	c None",
".	c #FF00FF",
"+	c #502906",
"@	c #DCB879",
"#	c #DCB97A",
"$	c #DCB277",
"%	c #DCB378",
"&	c #DBAC76",
"*	c #DBAD76",
"=	c #DBAE76",
"-	c #DBAF77",
";	c #DCB077",
">	c #DBB177",
",	c #DCB278",
"'	c #DCB478",
")	c #DBB477",
"!	c #DAA574",
"~	c #DAA674",
"{	c #DA9F73",
"]	c #D9A073",
"^	c #E0DC81",
"/	c #E1DC82",
"(	c #E0DD82",
"_	c #E1DE82",
":	c #E1DF83",
"<	c #E1E083",
"[	c #E1E082",
"}	c #D99971",
"|	c #D89971",
"1	c #E0D37F",
"2	c #E0D47F",
"3	c #E0D580",
"4	c #E0D680",
"5	c #E0D681",
"6	c #E0D881",
"7	c #E0DA81",
"8	c #E0DA82",
"9	c #E0DB82",
"0	c #D8926F",
"a	c #DFC97D",
"b	c #DECB7D",
"c	c #DECD7E",
"d	c #DFCD7E",
"e	c #DFCE7E",
"f	c #DFCF7F",
"g	c #E0D17F",
"h	c #DFD17F",
"i	c #DFD27F",
"j	c #D78B6E",
"k	c #DEC17B",
"l	c #DEC27B",
"m	c #DDC37C",
"n	c #DEC47C",
"o	c #DEC57C",
"p	c #DEC67C",
"q	c #DEC87D",
"r	c #DEC97D",
"s	c #DECA7D",
"t	c #DCB979",
"u	c #DDBA7A",
"v	c #DDBB7A",
"w	c #DCBC79",
"x	c #DDBD7A",
"y	c #DDBE7A",
"z	c #DEC07A",
"A	c #DDC17B",
"B	c #DCAF77",
"C	c #DCB477",
"D	c #DCB578",
"E	c #DCB678",
"F	c #DCB778",
"................",
"................",
".++++...........",
".+@#+...........",
".+$%++++++++++..",
".+&&*=-;>>,')+..",
".+!~++++++++++++",
".+{]+^/(_:<<[:<+",
".+}|+1234566789+",
".+0+abbcdefghi+.",
".+j+klmnoppqrs+.",
".++@tuvwxxyzA+..",
".++B>$,C'DEF@+..",
".++++++++++++...",
"................",
"................"};
