/* XPM */
static const char * icon_lightr_xpm[] = {
"16 16 5 1",
" 	c None",
".	c #FF00FF",
"+	c #614131",
"@	c #F6FF00",
"#	c #FFFFF5",
"................",
"................",
"................",
"........+.......",
".....+.+@+.+....",
"....+@++@++@+...",
".....+@@@@@+....",
"....++@###@++...",
"...+@@@###@@@+..",
"....++@###@++...",
".....+@@@@@+....",
"....+@++@++@+...",
".....+.+@+.+....",
"........+.......",
"................",
"................"};
