/* XPM */
static const char * icon_scene_xpm[] = {
"16 16 59 1",
" 	c None",
".	c #FF00FF",
"+	c #220606",
"@	c #BF4D4F",
"#	c #851111",
"$	c #851211",
"%	c #871313",
"&	c #881415",
"*	c #8A1616",
"=	c #8C1818",
"-	c #8F1B1A",
";	c #CB6B6B",
">	c #CC6C6E",
",	c #CB6C6C",
"'	c #A12B2B",
")	c #A32D2D",
"!	c #A42F2F",
"~	c #A63131",
"{	c #A93333",
"]	c #AB3535",
"^	c #AE3737",
"/	c #AF3938",
"(	c #D78181",
"_	c #DC8A8A",
":	c #DD8C8C",
"<	c #DE8E8E",
"[	c #DB8787",
"}	c #C14949",
"|	c #C34C4B",
"1	c #C54E4D",
"2	c #C74F50",
"3	c #CA5251",
"4	c #CB5354",
"5	c #CD5655",
"6	c #D05857",
"7	c #FFFFFF",
"8	c #D6D6D6",
"9	c #5A300E",
"0	c #FFFFFE",
"a	c #D4D4D4",
"b	c #D1D1D1",
"c	c #F7F7F8",
"d	c #F6F6F5",
"e	c #CCCCCD",
"f	c #BBBBBC",
"g	c #CAC9C9",
"h	c #EEEFEE",
"i	c #ECECED",
"j	c #C5C4C4",
"k	c #C1C2C1",
"l	c #E5E5E6",
"m	c #E3E3E3",
"n	c #BCBCBC",
"o	c #7C7C7C",
"p	c #BABABA",
"q	c #0D8A0A",
"r	c #40CD3C",
"s	c #043803",
"t	c #022002",
"................",
"...++++++++++...",
"..+@+#$$%&*=-+..",
".+;>,+')!~{]^/+.",
"+(_:<[+}|123456+",
"++++++++++++++++",
"..+7777+88888+..",
"..+7990+a999b+..",
"..+c99d+e9f9g+..",
"..+h99i+j999k+..",
"..+l99m+nooop+..",
"qr++++++++++++rq",
"qqqqqqqqqqqqqqqq",
".ssssssssssssss.",
"..tttttttttttt..",
"................"};
