/* XPM */
static const char * icon_vector_xpm[] = {
"16 16 5 1",
" 	c None",
".	c #FF00FF",
"+	c #0F490C",
"@	c #490C0C",
"#	c #0C0C49",
"................",
"......+.........",
".....+++........",
"....+.+.+.......",
"......+.........",
"......+.........",
"......+.........",
"......+....@....",
"......+.....@...",
"......#@@@@@@@..",
".....#......@...",
"..#.#......@....",
"..##............",
"..###...........",
"................",
"................"};
