/* XPM */
static const char * icon_rid_xpm[] = {
"16 16 58 1",
" 	c None",
".	c #FF00FF",
"+	c #000000",
"@	c #BBB298",
"#	c #413921",
"$	c #D5CDB2",
"%	c #D6CCB2",
"&	c #D5CCB1",
"*	c #D88171",
"=	c #D5CCB2",
"-	c #D4CCB1",
";	c #D4CBB0",
">	c #B55E4D",
",	c #B25B4A",
"'	c #BBB398",
")	c #BCB298",
"!	c #C87160",
"~	c #BAB197",
"{	c #BAB297",
"]	c #BAB196",
"^	c #8F866A",
"/	c #8F866B",
"(	c #B3AA8F",
"_	c #C26B5A",
":	c #B2A98E",
"<	c #B1A88E",
"[	c #B1A88D",
"}	c #A95242",
"|	c #AA5242",
"1	c #8A8165",
"2	c #BD6656",
"3	c #BD6655",
"4	c #BD6555",
"5	c #BC6555",
"6	c #857D61",
"7	c #A74F3F",
"8	c #857C61",
"9	c #A1987E",
"0	c #A2997E",
"a	c #A1987D",
"b	c #B76150",
"c	c #A0977D",
"d	c #A0987D",
"e	c #A0977C",
"f	c #81785D",
"g	c #A44D3C",
"h	c #998F75",
"i	c #989074",
"j	c #988F75",
"k	c #988F74",
"l	c #978E73",
"m	c #81785C",
"n	c #90876C",
"o	c #90876B",
"p	c #90866B",
"q	c #AD5545",
"r	c #8E856A",
"s	c #8E856B",
".....+++++++++++",
"....+@@@@@@@@@@+",
"...+@+++++++++@+",
"..+@+######++@@+",
".+@++######+@@++",
"+@+++++++++@@++.",
"+++$%&*=-;+@+>+.",
"++++++++++++,++.",
"..+')@!~{]+^+/+.",
"..+(((_:<[+}|1+.",
"..+2333345+678+.",
"..+90abcde+fg+..",
"..+hij,kll+m+...",
"..+nopqprs++....",
"..+++++++++.....",
"................"};
