/* XPM */
static const char * icon_integer_xpm[] = {
"16 16 3 1",
" 	c None",
".	c #FF00FF",
"+	c #000000",
"................",
"................",
"................",
"................",
"................",
"..+++.+...+.+++.",
"...+..++..+..+..",
"...+..+.+.+..+..",
"...+..+..++..+..",
"...+..+...+..+..",
"..+++.+...+..+..",
"................",
"................",
"................",
"................",
"................"};
