/* XPM */
static const char * icon_del_xpm[] = {
"16 16 5 1",
" 	c None",
".	c #FF00FF",
"+	c #490505",
"@	c #C10404",
"#	c #000000",
"...+++    +++...",
"...+@@+  +@@+...",
"...+@@@++@@@+...",
"....+@@@@@@+....",
".....+@@@@+.....",
".....+@@@@+.....",
"....+@@@@@@+....",
"...+@@@++@@@+...",
"...+@@+..+@@+...",
"...+++....+++...",
"................",
".###..####.#....",
".#  #.#....#....",
".#  #.##...#....",
".#  #.#....#....",
".###..####.####."};
