/* XPM */
static const char * icon_spline_xpm[] = {
"16 16 4 1",
" 	c None",
".	c #FF00FF",
"+	c #000000",
"@	c #F9F5C7",
"................",
"................",
"................",
"................",
"...+.....++.....",
"..+.....+..+....",
"..+....+....+...",
".+.....+.....+..",
".+....@......@..",
".+....+.....+...",
".+....+.....+...",
".@...+.....+....",
"..+..+.....@....",
"...++.......++..",
"................",
"................"};
