/* XPM */
static const char * icon_skeleton_xpm[] = {
"16 16 75 1",
" 	c None",
".	c #FF00FF",
"+	c #575453",
"@	c #DFE0DF",
"#	c #E3E3E3",
"$	c #E6E6E6",
"%	c #E4E4E5",
"&	c #E1E1E0",
"*	c #DCDBDB",
"=	c #D6D7D7",
"-	c #DCDCDC",
";	c #E2E1E2",
">	c #E7E7E7",
",	c #EBEBEB",
"'	c #ECECEC",
")	c #E9E8E8",
"!	c #DEDEDD",
"~	c #D8D8D8",
"{	c #D3D3D3",
"]	c #D7D7D7",
"^	c #DDDDDD",
"/	c #E2E3E2",
"(	c #E8E7E8",
"_	c #EEEEED",
":	c #EFEEEF",
"<	c #E9E9E9",
"[	c #E4E4E4",
"}	c #DFDEDE",
"|	c #CECDCE",
"1	c #DAD9D9",
"2	c #EAEAEA",
"3	c #CDCDCD",
"4	c #D5D5D5",
"5	c #171717",
"6	c #E2E2E2",
"7	c #D1D1D1",
"8	c #CBCCCB",
"9	c #D2D2D2",
"0	c #D6D6D6",
"a	c #DFDFE0",
"b	c #DEDEDE",
"c	c #CFCECE",
"d	c #C9CAC9",
"e	c #D2D3D2",
"f	c #D5D5D6",
"g	c #D9D9D9",
"h	c #D9D9D8",
"i	c #CFCFCF",
"j	c #CBCBCB",
"k	c #C6C7C6",
"l	c #CACACA",
"m	c #CECECE",
"n	c #D0D1D0",
"o	c #D2D2D3",
"p	c #D4D4D4",
"q	c #D1D2D1",
"r	c #C7C7C7",
"s	c #C3C3C4",
"t	c #C9C9C9",
"u	c #CBCCCC",
"v	c #C9CACA",
"w	c #C4C3C3",
"x	c #C7C7C6",
"y	c #C8C8C8",
"z	c #C8C9C9",
"A	c #C9C8C8",
"B	c #C5C4C5",
"C	c #C2C2C2",
"D	c #C3C3C2",
"E	c #C3C4C3",
"F	c #C3C3C3",
"G	c #C0C0C0",
"H	c #B8B8B8",
"I	c #B7B7B8",
"J	c #B6B6B7",
"....++++++++....",
"...+@#$$%&*=+...",
"..+-;>,')#!~{+..",
".+]^/(_:<[}~{|+.",
".+=1+++2>+++13+.",
".+41+55%655+78+.",
".+90+55ab55+cd+.",
".+cef~g1h0{ijk+.",
".+lmnop++qmjrs+.",
"..+tu|+55+vrw+..",
"...+xyztAxBC+...",
"....+D+EF+G+....",
".....+5555+.....",
".....+HHIJ+.....",
".....++++++.....",
"................"};
