/* XPM */
static const char * icon_view_xpm[] = {
"16 16 17 1",
" 	c None",
".	c #FF00FF",
"+	c #0D0B0D",
"@	c #FFFFFF",
"#	c #45935B",
"$	c #46935B",
"%	c #479B5F",
"&	c #479C5F",
"*	c #082A12",
"=	c #4AA763",
"-	c #4AA664",
";	c #4DB168",
">	c #4CB168",
",	c #4CB269",
"'	c #4FBD6D",
")	c #4FBD6E",
"!	c #000000",
"................",
".....+....+.....",
"...+.++++++.+...",
".+.++@##$#@++.+.",
".++@@%&@*%%@@++.",
".+@@@=****-@@@+.",
"..+@@;>**,>@@+..",
"...++@')''@++...",
".....++++++.....",
"................",
"................",
"!..!.!.!!!.!...!",
"!..!.!.!...!.!.!",
"!..!.!.!!..!.!.!",
".!.!.!.!...!.!.!",
"..!..!.!!!..!.!."};
