/* XPM */
static const char * icon_color_xpm[] = {
"16 16 15 1",
" 	c None",
".	c #FF00FF",
"+	c #FF3701",
"@	c #55BB00",
"#	c #564EA9",
"$	c #37B62C",
"%	c #378B6D",
"&	c #015BFF",
"*	c #00FF00",
"=	c #25B248",
"-	c #39D100",
";	c #3A52C5",
">	c #00C855",
",	c #00DA39",
"'	c #00A48D",
"................",
"................",
"......+++.......",
".....+++++......",
"....+++++++.....",
"...+++++++++....",
"...+@@@++###....",
"...@@@@$%###&...",
"..**@@@==##&&&..",
".***-@====;&&&&.",
".*****===>&&&&&.",
".*****>>>>&&&&&.",
"..*****>>&&&&&..",
"...****,'&&&&...",
"....***..&&&....",
"................"};
