/* XPM */
static const char * icon_animation_xpm[] = {
"16 16 44 1",
" 	c None",
".	c #000000",
"+	c #BCBCBC",
"@	c #585858",
"#	c #E0E0E0",
"$	c #DCDDDD",
"%	c #DDDDDC",
"&	c #C7C7C8",
"*	c #C8C8C8",
"=	c #C7C8C8",
"-	c #DDDDDD",
";	c #D8D7D8",
">	c #D8D8D7",
",	c #C4C4C4",
"'	c #5F5F5F",
")	c #D8D8D8",
"!	c #D3D3D3",
"~	c #D2D3D3",
"{	c #C1C0C0",
"]	c #C1C0C1",
"^	c #C1C1C1",
"/	c #C0C0C0",
"(	c #D2D2D3",
"_	c #CECECD",
":	c #CECDCE",
"<	c #BDBDBD",
"[	c #BEBDBE",
"}	c #BDBEBE",
"|	c #BEBEBD",
"1	c #CECECE",
"2	c #C8C9C8",
"3	c #C9C8C8",
"4	c #BABABA",
"5	c #C9C9C8",
"6	c #C4C4C3",
"7	c #C4C3C3",
"8	c #B6B6B7",
"9	c #B6B7B7",
"0	c #B6B6B6",
"a	c #C4C3C4",
"b	c #C3C3C3",
"c	c #BEBEBE",
"d	c #BFBEBE",
"e	c #BEBFBE",
"................",
".+.@########@.+.",
".+.$%$&*=*%%-.+.",
"...;>,,'',,>)...",
".+.!~{]']^/(!.+.",
".+._:<[''}|1:.+.",
"...2344''4452...",
".+.67,8909aba.+.",
".+.@cccdccec@.+.",
"................",
".+.@########@.+.",
".+.$%$&*=*%%-.+.",
"...;>,,'',,>)...",
".+.!~{]{'^/(!.+.",
".+._:<[''}|1:.+.",
"...2344'44452..."};
