/* XPM */
static const char * icon_particles_xpm[] = {
"16 16 3 1",
" 	c None",
".	c #0F010F",
"+	c #FF00FF",
".+++++++++++++.+",
"++++++.+++++++++",
"++.++++++++++.++",
"++++++++++++++++",
"++.++.+++.++.+++",
"++++++++++++++.+",
"+++.+++.++++++++",
"++++++++++.+++++",
"++++++++++++++++",
"++++++.++++.++++",
"+++.+++.++++++++",
"+++++++++.++++++",
"++++++.+++++++++",
"++++++++++++++++",
"+++++++.++++++++",
"++++++++++++++++"};
