/* XPM */
static const char * icon_edit_xpm[] = {
"16 16 7 1",
" 	c None",
".	c #FF00FF",
"+	c #53504D",
"@	c #000000",
"#	c #55391A",
"$	c #878787",
"%	c #9F6B33",
".+++..@@@@###...",
"+$$$+.@++@%%@@..",
".++$+.@+++%%++@.",
"..+$+.@++@%%@@+@",
"+++$+.@@@@%%#.@.",
"+$$$+....#%%#...",
"+$$+.....#%%#...",
"+$$+.....#%%#...",
"+$$+.....#%%#...",
".++......####...",
"................",
"@@@.@@..@@@.@@@.",
"@...@.@..@...@..",
"@@..@.@..@...@..",
"@...@.@..@...@..",
"@@@.@@@.@@@..@.."};
