/* XPM */
static const char * icon_plane_xpm[] = {
"16 16 35 1",
" 	c None",
".	c #FF00FF",
"+	c #355C07",
"@	c #D5C988",
"#	c #477B0B",
"$	c #477B0C",
"%	c #477A0B",
"&	c #477A0C",
"*	c #47790C",
"=	c #46790B",
"-	c #44760B",
";	c #44760A",
">	c #44750B",
",	c #44740B",
"'	c #43740A",
")	c #43740B",
"!	c #41710A",
"~	c #41700A",
"{	c #40700A",
"]	c #406F0A",
"^	c #406E0A",
"/	c #406F09",
"(	c #3D6B09",
"_	c #3E6A09",
":	c #3D6A09",
"<	c #3D6909",
"[	c #3C6909",
"}	c #3A6608",
"|	c #3A6508",
"1	c #3A6408",
"2	c #3A6509",
"3	c #396409",
"4	c #396508",
"5	c #396408",
"6	c #396308",
"................",
"................",
".......+........",
"......+@+.......",
".....+@@@+......",
"....+@+@+@+.....",
".....++@++......",
"..+++++@+++++...",
"..+#$%+@+&*=+...",
"..+-;>+@+,')+...",
".+!~~{+@+]^/^+..",
".+(__::+<<:<[+..",
".+}||12341156+..",
".+++++++++++++..",
"................",
"................"};
