/* XPM */
static const char * icon_func_xpm[] = {
"16 16 4 1",
" 	c None",
".	c #FF00FF",
"+	c #262444",
"@	c #0F0E1B",
"................",
".......++.......",
"...+...++...+...",
"..+++..++..+++..",
"...++++++++++...",
"....++++++++....",
"....+++@@+++....",
".+++++@@@@+++++.",
".+++++@@@@+++++.",
"....+++@@+++....",
"....++++++++....",
"...++++++++++...",
"..+++..++..+++..",
"...+...++...+...",
".......++.......",
"................"};
