/* XPM */
static const char * icon_collision_xpm[] = {
"16 16 36 1",
" 	c None",
".	c #FF00FF",
"+	c #000000",
"@	c #93D0D9",
"#	c #92CFD9",
"$	c #92D0D9",
"%	c #92D0D8",
"&	c #88C8D1",
"*	c #88C8D2",
"=	c #38374E",
"-	c #86C7D0",
";	c #86C7D1",
">	c #7CBFC9",
",	c #7BBFC8",
"'	c #7BBEC8",
")	c #7ABEC7",
"!	c #70B6C0",
"~	c #6FB6C0",
"{	c #6FB5BF",
"]	c #6FB5C0",
"^	c #6EB4BF",
"/	c #64ADB8",
"(	c #64ACB8",
"_	c #63ACB7",
":	c #62ABB7",
"<	c #62ABB6",
"[	c #57A4AF",
"}	c #58A4AF",
"|	c #56A3AE",
"1	c #56A2AD",
"2	c #4B9BA6",
"3	c #4B9BA7",
"4	c #4B9AA6",
"5	c #4B9AA5",
"6	c #4A9AA5",
"7	c #4999A5",
"................",
"................",
"................",
"................",
"......+++++++++.",
"......+@#@$$$%+.",
"..+...+&*===-;+.",
"..++..+>,=,'))+.",
"+++++.+!~={]^^+.",
"..++..+/(=__:<+.",
"..+...+[}===|1+.",
"......+2345667+.",
"......+++++++++.",
"................",
"................",
"................"};
