/* XPM */
static const char * icon_animation_node_xpm[] = {
"16 16 5 1",
" 	c None",
".	c #FF00FF",
"+	c #000000",
"@	c #FAFBD0",
"#	c #888888",
"........+.......",
".......+@+......",
"......+@+.......",
".....+@+........",
"....+@+.........",
"...+@+..........",
"..+@+...........",
".+@+............",
"..+.............",
"..+@+@+@+@+@++..",
"..++@+@+@+@+@+..",
"..++++++++++++..",
"..++###+#++#++..",
"..++++++++++++..",
"..+++##+###+++..",
"..++@+@+@+@+@+.."};
