/* XPM */
static const char * icon_up_xpm[] = {
"16 16 3 1",
" 	c None",
".	c #FF00FF",
"+	c #000000",
"................",
"................",
"................",
"................",
"................",
".......++.......",
"......++++......",
".....++++++.....",
"....++++++++....",
".......++.......",
".......++.......",
".......++.......",
"................",
"................",
"................",
"................"};
