/* XPM */
static const char * icon_volume_xpm[] = {
"16 16 6 1",
" 	c None",
".	c #FF00FF",
"+	c #000000",
"@	c #CDCDCD",
"#	c #A0A0A0",
"$	c #7C7C7C",
"................",
"................",
".......++.......",
"......+@++......",
".....+@@+#+.....",
"....+@@@@+#+....",
"...+@@@@@+##+...",
"..+@@@@@@@+##+..",
"..++++@@@@+##+..",
"..+###++++++++..",
"...+######+$$+..",
"....+####+$$+...",
".....+###+$+....",
"......+#+$+.....",
".......+++......",
"........+......."};
