/* XPM */
static const char * icon_matrix_xpm[] = {
"16 16 56 1",
" 	c None",
".	c #FF00FF",
"+	c #0D020E",
"@	c #0D030E",
"#	c #0E030F",
"$	c #0E020F",
"%	c #0D020F",
"&	c #0E0210",
"*	c #130314",
"=	c #130415",
"-	c #140416",
";	c #140415",
">	c #150415",
",	c #150416",
"'	c #200623",
")	c #200622",
"!	c #200723",
"~	c #210623",
"{	c #210624",
"]	c #260729",
"^	c #270829",
"/	c #270729",
"(	c #27082A",
"_	c #27072A",
":	c #27072B",
"<	c #330A36",
"[	c #330936",
"}	c #330A37",
"|	c #330A38",
"1	c #340A38",
"2	c #330937",
"3	c #350A38",
"4	c #390B3E",
"5	c #390B3D",
"6	c #3A0B3D",
"7	c #3A0B3E",
"8	c #3B0B3F",
"9	c #460D4B",
"0	c #460D4C",
"a	c #470D4C",
"b	c #470E4C",
"c	c #4D0E52",
"d	c #4C0E52",
"e	c #4D0F53",
"f	c #4E0F53",
"g	c #4D0E53",
"h	c #59115F",
"i	c #591160",
"j	c #5A1160",
"k	c #5A1161",
"l	c #5F1266",
"m	c #5F1267",
"n	c #601267",
"o	c #601366",
"p	c #601368",
"q	c #611268",
"................",
".++.@#.$%.##.&#.",
".*=.==.-;.->.,,.",
"................",
".''.)!.'~.~~.{{.",
".]].^/.((._(.:(.",
"................",
".<[.}}.}|.12.13.",
".45.65.77.77.88.",
"................",
".99.09.90.aa.ab.",
".cd.dc.ec.ec.fg.",
"................",
".hh.ih.ij.ii.kj.",
".ll.lm.no.nn.pq.",
"................"};
