/* XPM */
static const char * icon_portal_xpm[] = {
"16 16 12 1",
" 	c None",
".	c #FF00FF",
"+	c #D7D48C",
"@	c #5F3620",
"#	c #161616",
"$	c #E8E8E8",
"%	c #5F5D24",
"&	c #000000",
"*	c #D2D2D2",
"=	c #FFFFFF",
"-	c #838383",
";	c #180D07",
"................",
".+++++++++++++..",
".+@@@@@@@@@@@+@.",
".+@..........+@.",
".+@...#..#...+@.",
".+@.#.####.#.+@.",
".+@.###$$###.+@.",
".+@.%$$&*$$%@+@.",
".+@.%==-;==%@+@.",
".+@.#%%==%%#@+@.",
".+@..@#%%#@@.+@.",
".+@....@@@...+@.",
".+@..........+@.",
".+++++++++++++@.",
"..@@@@@@@@@@@@@.",
"................"};
