/* XPM */
static const char * icon_material_xpm[] = {
"16 16 164 2",
"  	c None",
". 	c #FF00FF",
"+ 	c #3F0615",
"@ 	c #CD5073",
"# 	c #D05478",
"$ 	c #CE5377",
"% 	c #CA4F71",
"& 	c #C3486A",
"* 	c #BA3D60",
"= 	c #CB4D70",
"- 	c #D35B7E",
"; 	c #DB6588",
"> 	c #DE6D8C",
", 	c #DB6A8B",
"' 	c #D76384",
") 	c #CF5678",
"! 	c #C4496C",
"~ 	c #B83C5F",
"{ 	c #AD3252",
"] 	c #C84B6E",
"^ 	c #D55C7E",
"/ 	c #E07393",
"( 	c #E781A0",
"_ 	c #EB88A7",
": 	c #EA82A3",
"< 	c #E57898",
"[ 	c #D96788",
"} 	c #CD5678",
"| 	c #C14769",
"1 	c #B23959",
"2 	c #A42C4C",
"3 	c #CD5376",
"4 	c #DC6B8C",
"5 	c #E988A6",
"6 	c #F39EB9",
"7 	c #F6A9C2",
"8 	c #F3A1BC",
"9 	c #EC8FAC",
"0 	c #E37897",
"a 	c #D46081",
"b 	c #C64D6E",
"c 	c #B73C5F",
"d 	c #A83052",
"e 	c #C14669",
"f 	c #D25B7D",
"g 	c #E07496",
"h 	c #EE97B3",
"i 	c #F7B4C9",
"j 	c #FCC1D4",
"k 	c #F8B6CC",
"l 	c #F09CB8",
"m 	c #E57E9E",
"n 	c #D6688A",
"o 	c #CA5576",
"p 	c #BA4264",
"q 	c #AA3252",
"r 	c #9B2644",
"s 	c #C04668",
"t 	c #D05B7D",
"u 	c #E07798",
"v 	c #EE9DB6",
"w 	c #F6B9CD",
"x 	c #FAC5D7",
"y 	c #F7BCCF",
"z 	c #F0A1BB",
"A 	c #E383A1",
"B 	c #D76989",
"C 	c #C85475",
"D 	c #B94163",
"E 	c #A93151",
"F 	c #9A2544",
"G 	c #BD4466",
"H 	c #CC5879",
"I 	c #DA7091",
"J 	c #E98FAC",
"K 	c #F1A9C1",
"L 	c #F4B4CA",
"M 	c #F1ABC2",
"N 	c #EB95B0",
"O 	c #DF7999",
"P 	c #D36384",
"Q 	c #C65173",
"R 	c #B54061",
"S 	c #A6304F",
"T 	c #982441",
"U 	c #B63C5E",
"V 	c #C44D6E",
"W 	c #D26284",
"X 	c #DE7C9A",
"Y 	c #E78EAB",
"Z 	c #EA95B3",
"` 	c #E890AD",
" .	c #E382A2",
"..	c #D86F8F",
"+.	c #CB5A7B",
"@.	c #BE4768",
"#.	c #AF3859",
"$.	c #A02B4C",
"%.	c #94223F",
"&.	c #AE3656",
"*.	c #BA4364",
"=.	c #C55173",
"-.	c #D16283",
";.	c #D86E8E",
">.	c #DB7495",
",.	c #D87191",
"'.	c #D56989",
").	c #CC5B7D",
"!.	c #C14D6E",
"~.	c #B53E60",
"{.	c #A73352",
"].	c #9A2745",
"^.	c #8D1D3A",
"/.	c #AF3658",
"(.	c #B84162",
"_.	c #C14B6D",
":.	c #C85678",
"<.	c #CA5B7C",
"[.	c #CA597B",
"}.	c #C65275",
"|.	c #BE496B",
"1.	c #AA3255",
"2.	c #9E2848",
"3.	c #93213F",
"4.	c #881936",
"5.	c #A22D4C",
"6.	c #AB3455",
"7.	c #B33B5D",
"8.	c #B74163",
"9.	c #BA4466",
"0.	c #B94365",
"a.	c #B63F61",
"b.	c #AF385A",
"c.	c #A83253",
"d.	c #9D2A48",
"e.	c #932241",
"f.	c #8A1B38",
"g.	c #972341",
"h.	c #9E2949",
"i.	c #A42F4D",
"j.	c #A83254",
"k.	c #A93354",
"l.	c #A93353",
"m.	c #A63152",
"n.	c #A12D4C",
"o.	c #9A2746",
"p.	c #92213E",
"q.	c #8A1B37",
"r.	c #801430",
"s.	c #8F1E3E",
"t.	c #952240",
"u.	c #982543",
"v.	c #9A2645",
"w.	c #992645",
"x.	c #962543",
"y.	c #92213F",
"z.	c #8C1D3B",
"A.	c #861935",
"B.	c #7F142F",
"C.	c #8A1C39",
"D.	c #8B1B38",
"E.	c #891A37",
"F.	c #861934",
"G.	c #7F1430",
". . . . . + + + + + + . . . . . ",
". . . + + @ # $ % & * + + . . . ",
". . + = - ; > , ' ) ! ~ { + . . ",
". + ] ^ / ( _ : < [ } | 1 2 + . ",
". + 3 4 5 6 7 8 9 0 a b c d + . ",
"+ e f g h i j k l m n o p q r + ",
"+ s t u v w x y z A B C D E F + ",
"+ G H I J K L M N O P Q R S T + ",
"+ U V W X Y Z `  ...+.@.#.$.%.+ ",
"+ &.*.=.-.;.>.,.'.).!.~.{.].^.+ ",
"+ 2 /.(._.:.<.[.}.|.~.1.2.3.4.+ ",
". + 5.6.7.8.9.0.a.b.c.d.e.f.+ . ",
". + g.h.i.j.k.l.m.n.o.p.q.r.+ . ",
". . + s.t.u.v.w.x.y.z.A.B.+ . . ",
". . . + + f.C.D.E.F.G.+ + . . . ",
". . . . . + + + + + + . . . . . "};
