/* XPM */
static const char * icon_tree_xpm[] = {
"16 16 10 1",
" 	c None",
".	c #FF00FF",
"+	c #4BED62",
"@	c #FFFD60",
"#	c #F77BFF",
"$	c #FF6666",
"%	c #000000",
"&	c #7B81FF",
"*	c #60EEFF",
"=	c #7BFFD2",
"................",
".........+......",
".......@.+...#..",
"...$...@.%...#..",
"...$...%%%...%..",
"...%...%...&.%..",
"...%.*.%...&%%..",
"...%.*.%.=.%....",
"...%%%.%%=.%....",
".....%...%.%....",
".....%%%.%%%....",
".......%.%......",
".......%%%......",
".......%........",
".......%........",
".......%........"};
