/* XPM */
static const char * icon_influence_zone_xpm[] = {
"16 16 33 1",
" 	c None",
".	c #FF00FF",
"+	c #000000",
"@	c #4C6064",
"#	c #4D6064",
"$	c #596D72",
"%	c #5A6E73",
"&	c #5A6E72",
"*	c #5A6D72",
"=	c #596E72",
"-	c #697E82",
";	c #697E83",
">	c #788E92",
",	c #788D93",
"'	c #798E93",
")	c #788E93",
"!	c #879EA3",
"~	c #889EA3",
"{	c #889DA3",
"]	c #879DA3",
"^	c #97ADB3",
"/	c #97AEB3",
"(	c #96AEB3",
"_	c #97ADB4",
":	c #A6BDC4",
"<	c #A6BDC3",
"[	c #A5BEC3",
"}	c #A5BEC4",
"|	c #A6BEC3",
"1	c #B5CED3",
"2	c #B5CDD4",
"3	c #B5CED4",
"4	c #B5CDD3",
"................",
"................",
"................",
".++..........++.",
".+.@#####@#@@.+.",
".+.@$%&*=**=@.+.",
".+.@-----;;;@.+.",
".+.@>>,>',)>@.+.",
".+.@!~~{{]~!@.+.",
".+.@^//^^(/_@.+.",
".+.@:<[}||||@.+.",
".+.@12134143@.+.",
".+.@@@@@@@@@@.+.",
".++..........++.",
"................",
"................"};
