/* XPM */
static const char * icon_new_xpm[] = {
"16 16 11 1",
" 	c None",
".	c #FF00FF",
"+	c #073F04",
"@	c #0D7408",
"#	c #063E03",
"$	c #0C7307",
"%	c #063D03",
"&	c #0C7007",
"*	c #063A03",
"=	c #063B03",
"-	c #000000",
"......++++......",
"......+@@+......",
"......+@@+......",
"...++++@@++++...",
"...+@@@@@@@@+...",
"...+@@@@@@@@+...",
"...++##$$##++...",
"......#$$#......",
"......%&&%......",
"......**==......",
"................",
"-...-.----.-...-",
"--..-.-....-...-",
"-.-.-.--...-...-",
"-..--.-....-.-.-",
"-...-.----..-.-."};
