/* XPM */
static const char * icon_surface_xpm[] = {
"16 16 5 1",
" 	c None",
".	c #FF00FF",
"+	c #3F0615",
"@	c #D7D7D7",
"#	c #A7A7A7",
"................",
".+++++++++++++++",
".+@@@@@++@@@@@++",
".+@@@@+#+@@@@+#+",
".+@@@+##+@@@+##+",
".+@@+###+@@+###+",
".+@+####+@+####+",
".++#####++#####+",
".+++++++++++++++",
".+@@@@@++@@@@@++",
".+@@@@+#+@@@@+#+",
".+@@@+##+@@@+##+",
".+@@+###+@@+###+",
".+@+####+@+####+",
".++#####++#####+",
".+++++++++++++++"};
