/* XPM */
static const char * icon_image_xpm[] = {
"16 16 44 1",
" 	c None",
".	c #79112C",
"+	c #965263",
"@	c #998BFA",
"#	c #998CFA",
"$	c #988BF9",
"%	c #998CF9",
"&	c #988CF9",
"*	c #988BF8",
"=	c #988CF8",
"-	c #988BF7",
";	c #988CF7",
">	c #978BF7",
",	c #978CF7",
"'	c #000000",
")	c #8D8DE1",
"!	c #8D8DE0",
"~	c #8D8DDF",
"{	c #8D8DDE",
"]	c #828FC8",
"^	c #828EC8",
"/	c #808FC6",
"(	c #818FC6",
"_	c #7791B0",
":	c #7691B0",
"<	c #7590AE",
"[	c #7591AE",
"}	c #6B9298",
"|	c #6A9297",
"1	c #6B9297",
"2	c #6A9396",
"3	c #699396",
"4	c #699295",
"5	c #5F947F",
"6	c #5E947E",
"7	c #5E947D",
"8	c #5D947D",
"9	c #5E947C",
"0	c #539667",
"a	c #539666",
"b	c #539665",
"c	c #529665",
"d	c #529664",
"e	c #FF00FF",
"................",
".++++++++++++++.",
".+@@#$%&*=-;>,+.",
".+'')!''''~{''+.",
".+'']^''''/(''+.",
".+''_:''''<[''+.",
".+'}}|1''2344'+.",
".+'5555''6789'+.",
".+'00aa''bccd'+.",
".++++++++++++++.",
"................",
"'e'e'ee'ee'''e''",
"'e'''e'e'e'eee'e",
"'e'e'e'''e'e'e''",
"'e'e'e'e'e'e'e'e",
"'e'e'e'e'e'''e''"};
