/* XPM */
static const char * icon_camera_xpm[] = {
"16 16 9 1",
" 	c None",
".	c #FF00FF",
"+	c #0A000A",
"@	c #E1E1E1",
"#	c #9F9FA9",
"$	c #3D40C9",
"%	c #8385E5",
"&	c #FFFFFF",
"*	c #393C94",
"................",
"...++++...++++..",
"..+@+##+.+@+##+.",
".+@+####+@+####+",
".+@+####+@+####+",
"..+@+##+$+@+##+.",
"...++++$$$++++..",
"..+%+$$$$$$$$$+.",
".++%+$$$$$$$$$+.",
"+&++$$$*******+.",
"+&+$$$$*$$$$$$+.",
"+&++$$$*$$$$$$+.",
".++%+$$*$$$$$$+.",
"..+%+$$*$$$$$$+.",
"..++++++++++++..",
"................"};
