/* XPM */
static const char * icon_quat_xpm[] = {
"16 16 4 1",
" 	c None",
".	c #FF00FF",
"+	c #000000",
"@	c #264106",
"................",
"................",
".......++.......",
"......@++@......",
"...@@@.++.@@@...",
"..@....++....@..",
".@.....++....@..",
".@.....++..@@@@@",
".@.....++...@@@.",
".@.....++....@..",
"..@....++.......",
"...@@@.++..@@...",
"......@@@@@.....",
".......++.......",
".......++.......",
".....++++++....."};
