/* XPM */
static const char * icon_mesh_xpm[] = {
"16 16 150 2",
"  	c None",
". 	c #FF00FF",
"+ 	c #430716",
"@ 	c #460618",
"# 	c #420615",
"$ 	c #3C0614",
"% 	c #360411",
"& 	c #490718",
"* 	c #4F071A",
"= 	c #B0B1B0",
"- 	c #B3B3B4",
"; 	c #53071B",
"> 	c #B3B3B3",
", 	c #ACACAB",
"' 	c #390513",
") 	c #2E0410",
"! 	c #4C0818",
"~ 	c #B0B0AF",
"{ 	c #B6B7B6",
"] 	c #BCBCBC",
"^ 	c #610920",
"/ 	c #C1C1C1",
"( 	c #BFC0C0",
"_ 	c #4D0719",
": 	c #B0AFB0",
"< 	c #A8A8A7",
"[ 	c #2C040E",
"} 	c #B0B0B0",
"| 	c #B9B9B9",
"1 	c #6C0A24",
"2 	c #CCCCCC",
"3 	c #CECDCE",
"4 	c #CBCCCC",
"5 	c #C8C7C8",
"6 	c #4C0618",
"7 	c #AFB0B0",
"8 	c #A5A5A6",
"9 	c #25030D",
"0 	c #50081C",
"a 	c #5B091E",
"b 	c #C1C1C0",
"c 	c #CBCACA",
"d 	c #7A0A27",
"e 	c #D8D8D7",
"f 	c #DADADA",
"g 	c #D8D7D7",
"h 	c #D3D2D2",
"i 	c #CBCBCA",
"j 	c #53071C",
"k 	c #B7B6B7",
"l 	c #390514",
"m 	c #2A040F",
"n 	c #B1B1B0",
"o 	c #6F0B23",
"p 	c #7C0C29",
"q 	c #880C2C",
"r 	c #8B0D2E",
"s 	c #860E2A",
"t 	c #7E0C29",
"u 	c #720A25",
"v 	c #640820",
"w 	c #55091D",
"x 	c #A5A5A4",
"y 	c #1F030C",
"z 	c #490719",
"A 	c #B3B4B3",
"B 	c #C0BFC0",
"C 	c #CCCCCB",
"D 	c #820C2B",
"E 	c #E3E3E3",
"F 	c #EEEEEE",
"G 	c #F3F2F3",
"H 	c #EEEDED",
"I 	c #D8D8D8",
"J 	c #4C0819",
"K 	c #B4B4B3",
"L 	c #A7A8A8",
"M 	c #200409",
"N 	c #57071C",
"O 	c #CDCDCD",
"P 	c #810B2A",
"Q 	c #E6E6E6",
"R 	c #F3F2F2",
"S 	c #FFFFFF",
"T 	c #F3F3F3",
"U 	c #E6E6E7",
"V 	c #DADAD9",
"W 	c #4D0718",
"X 	c #B5B5B5",
"Y 	c #300410",
"Z 	c #22020C",
"` 	c #6E0A24",
" .	c #7B0B28",
"..	c #EDEEEE",
"+.	c #EEEDEE",
"@.	c #E3E4E3",
"#.	c #3D0512",
"$.	c #A7A8A7",
"%.	c #450517",
"&.	c #B1B0B1",
"*.	c #710924",
"=.	c #780C28",
"-.	c #740A26",
";.	c #680A22",
">.	c #5E081E",
",.	c #460615",
"'.	c #A5A5A5",
").	c #1C040A",
"!.	c #3D0514",
"~.	c #B7B7B6",
"{.	c #650921",
"].	c #D2D2D2",
"^.	c #D8D7D8",
"/.	c #D9DADA",
"(.	c #CACBCB",
"_.	c #3F0514",
":.	c #ACACAC",
"<.	c #190108",
"[.	c #400614",
"}.	c #5D091F",
"|.	c #CDCECD",
"1.	c #C7C7C7",
"2.	c #370512",
"3.	c #2C020F",
"4.	c #1F0308",
"5.	c #A7A7A7",
"6.	c #AFAFAF",
"7.	c #50081B",
"8.	c #52081B",
"9.	c #380413",
"0.	c #9E9E9E",
"a.	c #180209",
"b.	c #330511",
"c.	c #A6A5A5",
"d.	c #ACABAC",
"e.	c #B0B0B1",
"f.	c #B5B5B4",
"g.	c #B4B3B4",
"h.	c #340611",
"i.	c #190306",
"j.	c #2D050E",
"k.	c #33050F",
"l.	c #2D050F",
"m.	c #A1A0A0",
"n.	c #26040B",
"o.	c #29030C",
"p.	c #26040A",
"q.	c #24040C",
"r.	c #20040A",
"s.	c #190309",
". . . . . + @ @ # $ % . . . . . ",
". . . & * = - ; > & , ' ) . . . ",
". . ! ~ { ] ^ / ( ] _ : < [ . . ",
". & } | / 1 2 3 4 5 / 6 7 8 9 . ",
". 0 a b c d e f g h i j k l m . ",
"& n ] o p q r s t u v w 6 } x y ",
"z A B C D E F G H E I C J K L M ",
"6 N / O P Q R S T U V O W X Y Z ",
"& > ^ `  .E ..G +.@.I C z #.$.y ",
"%.&.] 5 *.d p =.-.;.>.; ,.n '.).",
"!.& ~.b {.].^./.I ].(./ _.:.9 <.",
". [.z ; b }.2 |.2 1./ # 2.3.4.. ",
". % 5.6.J 7.8.8.* & # 9.5.0.a.. ",
". . b.c.d.e.+ f.g.&.h.'.0.i.. . ",
". . . j.k.x 5.h.5.l.m.M <.. . . ",
". . . . . n.o.p.q.r.s.. . . . . "};
