/* XPM */
static const char * icon_mesh_old_xpm[] = {
"16 16 80 1",
" 	c None",
".	c #FF00FF",
"+	c #430716",
"@	c #460618",
"#	c #420615",
"$	c #3C0614",
"%	c #360411",
"&	c #490718",
"*	c #4F071A",
"=	c #53071B",
"-	c #390513",
";	c #2E0410",
">	c #4C0818",
",	c #610920",
"'	c #4D0719",
")	c #2C040E",
"!	c #6C0A24",
"~	c #4C0618",
"{	c #25030D",
"]	c #50081C",
"^	c #5B091E",
"/	c #7A0A27",
"(	c #53071C",
"_	c #390514",
":	c #2A040F",
"<	c #6F0B23",
"[	c #7C0C29",
"}	c #880C2C",
"|	c #8B0D2E",
"1	c #860E2A",
"2	c #7E0C29",
"3	c #720A25",
"4	c #640820",
"5	c #55091D",
"6	c #1F030C",
"7	c #490719",
"8	c #820C2B",
"9	c #4C0819",
"0	c #200409",
"a	c #57071C",
"b	c #810B2A",
"c	c #4D0718",
"d	c #300410",
"e	c #22020C",
"f	c #6E0A24",
"g	c #7B0B28",
"h	c #3D0512",
"i	c #450517",
"j	c #710924",
"k	c #780C28",
"l	c #740A26",
"m	c #680A22",
"n	c #5E081E",
"o	c #460615",
"p	c #1C040A",
"q	c #3D0514",
"r	c #650921",
"s	c #3F0514",
"t	c #190108",
"u	c #400614",
"v	c #5D091F",
"w	c #370512",
"x	c #2C020F",
"y	c #1F0308",
"z	c #50081B",
"A	c #52081B",
"B	c #380413",
"C	c #180209",
"D	c #330511",
"E	c #340611",
"F	c #190306",
"G	c #2D050E",
"H	c #33050F",
"I	c #2D050F",
"J	c #26040B",
"K	c #29030C",
"L	c #26040A",
"M	c #24040C",
"N	c #20040A",
"O	c #190309",
".....+@@#$%.....",
"...&*..=.&.-;...",
"..>...,...'..)..",
".&...!.....~..{.",
".]^../.....(._:.",
"&..<[}|12345~..6",
"7...8.......9..0",
"~a..b.......c.de",
"&.,fg.......7h.6",
"i...j/[klmn=o..p",
"q&..r.......s.{t",
".u7=.v.....#wxy.",
".%..9zAA*&#B..C.",
"..D...+...E..F..",
"...GH..E.I.0t...",
".....JKLMNO....."};
