/* XPM */
static const char * icon_skeletonr_xpm[] = {
"16 16 51 1",
" 	c None",
".	c #FF00FF",
"+	c #575453",
"@	c #FDFDFD",
"#	c #F6F6F7",
"$	c #F5F5F5",
"%	c #F0F1F1",
"&	c #F0EFEF",
"*	c #EEEFEE",
"=	c #EDEDED",
"-	c #ECECEC",
";	c #EBEBEC",
">	c #EAEAEA",
",	c #E9E9E9",
"'	c #E8E7E8",
")	c #E6E6E6",
"!	c #E5E6E6",
"~	c #E5E4E4",
"{	c #E3E4E3",
"]	c #E2E3E3",
"^	c #DDDCDC",
"/	c #DBDBDC",
"(	c #DADADA",
"_	c #D9D9D9",
":	c #D8D8D8",
"<	c #D7D7D7",
"[	c #D6D6D5",
"}	c #D5D4D5",
"|	c #D4D4D4",
"1	c #D3D3D2",
"2	c #D2D1D1",
"3	c #D0D1D1",
"4	c #CACACB",
"5	c #C9CACA",
"6	c #C9C8C8",
"7	c #C8C7C8",
"8	c #C6C6C6",
"9	c #C5C5C5",
"0	c #C4C4C3",
"a	c #C3C3C3",
"b	c #C2C2C1",
"c	c #C1C0C0",
"d	c #BFBFC0",
"e	c #BFBEBE",
"f	c #BEBDBD",
"g	c #BCBCBC",
"h	c #B7B8B7",
"i	c #B6B6B7",
"j	c #AAAAAA",
"k	c #A9A9A9",
"l	c #000000",
"................",
"................",
".++..........++.",
"+@@++++++++++#$+",
"+%&*=-;>,')!~{]+",
".+^/(_:<[}|123+.",
"+4567890abcdefg+",
"+hi++++++++++jk+",
".++..........++.",
"................",
".ll...l..l.l.ll.",
".l.l.l.l.lll.l..",
".ll..l.l.l.l.ll.",
".l.l.l.l.l.l.l..",
".lll..l..l.l.ll.",
"................"};
