/* XPM */
static const char * icon_dummy_xpm[] = {
"16 16 3 1",
" 	c None",
".	c #FF00FF",
"+	c #264106",
"................",
"................",
"......+.+.+.+.+.",
".....+.......+..",
"....+.......+.+.",
"...+.......+....",
"..+.+.+.+.+...+.",
"................",
"..+.......+...+.",
"................",
"..+.......+...+.",
".............+..",
"..+.......+.+...",
"...........+....",
"..+.+.+.+.+.....",
"................"};
