/* XPM */
static const char * icon_rigid_body_xpm[] = {
"16 16 7 1",
" 	c None",
".	c #FF00FF",
"+	c #264106",
"@	c #E5E5E5",
"#	c #7B7B7B",
"$	c #C4C2C2",
"%	c #000000",
"................",
"................",
"......+++++++++.",
".....+@@@@@@@++.",
"....+@@@@@@@+#+.",
"...+@@@@@@@+##+.",
"..+++++++++###+.",
"..+$$$$$$$+###+.",
"..+$%%%%$$+###+.",
"..+$%$$$$$+###+.",
"..+$%%%$$$+###+.",
"..+$%$$$$$+##+..",
"..+$%$$$$$+#+...",
"..+$$$$$$$++....",
"..+++++++++.....",
"................"};
