/* XPM */
static const char * icon_iapi_xpm[] = {
"16 16 7 1",
" 	c None",
".	c #FF00FF",
"+	c #264106",
"@	c #D54B62",
"#	c #4BACD5",
"$	c #4BD586",
"%	c #000000",
"......+++++++...",
".....+@@@@@++...",
"....+@@@@@+#+...",
"...+++++++##+...",
"...+$$$$$+##+...",
"...+$$$$$+##+...",
"...+$$$$$+##+...",
"...+$$$$$+#+....",
"...+$$$$$++.....",
"...+++++++......",
"................",
"...%..%..%%..%..",
"...%.%.%.%.%.%..",
"...%.%%%.%%%.%..",
"...%.%.%.%...%..",
"...%.%.%.%...%.."};
