/* XPM */
static const char * icon_scene_instance_xpm[] = {
"16 16 49 1",
" 	c None",
".	c #FF00FF",
"+	c #551316",
"@	c #90474A",
"#	c #6D1D20",
"$	c #6E1E21",
"%	c #6F1F22",
"&	c #702023",
"*	c #722325",
"=	c #A15F61",
"-	c #A26163",
";	c #7C2F31",
">	c #7D3032",
",	c #7F3235",
"'	c #803436",
")	c #823538",
"!	c #833639",
"~	c #85393C",
"{	c #AE7274",
"]	c #B27A7C",
"^	c #B57E7F",
"/	c #B67F81",
"(	c #B1787A",
"_	c #8F4648",
":	c #91494B",
"<	c #924A4D",
"[	c #934C4E",
"}	c #954F51",
"|	c #975153",
"1	c #985254",
"2	c #FDFCFC",
"3	c #DEC3C4",
"4	c #742528",
"5	c #DCBFC0",
"6	c #DABCBD",
"7	c #F6EFEF",
"8	c #F5ECED",
"9	c #D5B3B4",
"0	c #CAA0A1",
"a	c #D4B1B2",
"b	c #F0E2E3",
"c	c #EEE0E0",
"d	c #D0AAAC",
"e	c #CFA8AA",
"f	c #E8D4D4",
"g	c #9E5C5E",
"h	c #BA8587",
"i	c #6C1C1F",
"j	c #5E1518",
"................",
"...++++++++++...",
"..+@+####$%&*+..",
".+=--+;>>,')!~+.",
"+{]^/(+_@:<[}|1+",
"++++++++++++++++",
"..+2222+33333+..",
"..+2442+54446+..",
"..+7448+9404a+..",
"..+b44c+d444e+..",
"..+f44f+0ggg0+..",
"@h++++++++++++h@",
"@@@@@@@@@@@@@@@@",
".iiiiiiiiiiiiii.",
"..jjjjjjjjjjjj..",
"................"};
