/* XPM */
static const char * icon_light_xpm[] = {
"16 16 37 1",
" 	c None",
".	c #FF00FF",
"+	c #948A41",
"@	c #D4CFAA",
"#	c #D3CEA8",
"$	c #D8D3B1",
"%	c #DAD6B6",
"&	c #DBD7B8",
"*	c #D9D5B3",
"=	c #D0CBA3",
"-	c #DDD9BA",
";	c #DFDBBF",
">	c #E1DEC4",
",	c #D5D1AC",
"'	c #E5E2CB",
")	c #E6E4CD",
"!	c #E4E1C9",
"~	c #D6D2AF",
"{	c #D2CDA6",
"]	c #E0DDC1",
"^	c #E8E5D0",
"/	c #EDEBDA",
"(	c #DEDABD",
"_	c #CCC69B",
":	c #C9C396",
"<	c #CFCAA1",
"[	c #A9A060",
"}	c #F3F2E7",
"|	c #726818",
"1	c #C8C294",
"2	c #CAC599",
"3	c #C7C192",
"4	c #706616",
"5	c #888888",
"6	c #B5B5B5",
"7	c #D3D3D3",
"8	c #5A5A5A",
".......++.......",
".....++@#++.....",
"....+$%&*$=+....",
"...+$-;>;&,=+...",
"...+%;')!;~{+...",
"..+@%]^/'(${_+..",
"..+#$(!'!-$=:+..",
"..+<,[}|}|[=1+..",
"...+=[$*$@[:+...",
"...+_=[{=[23+...",
"....+1[::[3+....",
".....++44++.....",
"......5665......",
"......7887......",
"......5665......",
".......88......."};
