/* XPM */
static char * icon_visibility_area_xpm[] = {
"16 16 19 1",
" 	c None",
".	c #EDEDED",
"+	c #533232",
"@	c #61EEFB",
"#	c #8F0808",
"$	c #B8E016",
"%	c #B8B8B8",
"&	c #2C3693",
"*	c #39B75D",
"=	c #1F823B",
"-	c #394296",
";	c #21275C",
">	c #797D8F",
",	c #181F66",
"'	c #8E0916",
")	c #A45960",
"!	c #5460D2",
"~	c #B8AFAF",
"{	c #ACA2A2",
"................",
"........+++++...",
"........+@+@+...",
"........+@+@+...",
".###....+++++...",
".#$#....+@+@+...",
".#$#...+++++++..",
".%%%...%%%%%%%..",
".........&&&....",
"..*=....&---&...",
"...*....&-;-&...",
"..=...>,-----,>.",
".')''.,,!!!!!,,.",
"~~)'~~,,,,,,,,,~",
"~~''~~,,,,,,,,,~",
"{{{{{{{{{{{{{{{{"};
