/* XPM */
static const char * icon_animation_set_xpm[] = {
"16 16 85 1",
" 	c #FF00FF",
".	c #FF01FF",
"+	c #FE06FE",
"@	c #777272",
"#	c #9F9F9E",
"$	c #AEADAC",
"%	c #B7B7B6",
"&	c #4C4C4B",
"*	c #A9A29E",
"=	c #848483",
"-	c #1F1E1D",
";	c #2A2A29",
">	c #7F7E7D",
",	c #AFB0AF",
"'	c #000000",
")	c #2D2C2C",
"!	c #A19D9D",
"~	c #979493",
"{	c #595959",
"]	c #515150",
"^	c #707170",
"/	c #A09E9C",
"(	c #1B0807",
"_	c #281515",
":	c #A9A7A6",
"<	c #585657",
"[	c #201E1D",
"}	c #868686",
"|	c #9B9B98",
"1	c #302221",
"2	c #271515",
"3	c #908E8D",
"4	c #A2A3A3",
"5	c #A2A2A2",
"6	c #B0B0AE",
"7	c #959493",
"8	c #9A9998",
"9	c #9E9F9F",
"0	c #BDBEBD",
"a	c #7D7976",
"b	c #979593",
"c	c #979795",
"d	c #999A97",
"e	c #9F9D9C",
"f	c #848584",
"g	c #ADAFAD",
"h	c #FF09FF",
"i	c #565755",
"j	c #1C1515",
"k	c #82817F",
"l	c #918D8C",
"m	c #1D1E1D",
"n	c #8F8F8E",
"o	c #B5B2B2",
"p	c #FF06FF",
"q	c #5A5959",
"r	c #1E1215",
"s	c #959595",
"t	c #A9A7A5",
"u	c #111010",
"v	c #8E8D8C",
"w	c #868584",
"x	c #24211F",
"y	c #2A2523",
"z	c #A6A6A5",
"A	c #989695",
"B	c #818281",
"C	c #6D6C6B",
"D	c #272422",
"E	c #1F1615",
"F	c #92908E",
"G	c #A4A4A3",
"H	c #808180",
"I	c #FF02FF",
"J	c #737270",
"K	c #787877",
"L	c #7A7C7B",
"M	c #FE04FE",
"N	c #FF09FE",
"O	c #FA08FA",
"P	c #FE03FE",
"Q	c #FD02FD",
"R	c #F50EF5",
"S	c #F310F3",
"T	c #FB04FB",
"    .+          ",
"  @@@@@         ",
" @#$%&*@        ",
"@=-;>%&*@       ",
"@,')!~%&*@      ",
"{]^/(_:'*@      ",
"<[}|123*'@      ",
"^4567890'@      ",
"aabcdefg'& h    ",
"ijklm'no&' p    ",
"qrst&uvg&'      ",
"@wxyzAB9&'   '  ",
" CDEFGH@&'  I ' ",
"+ J7KL@ &'@MN 'I",
" O @@@ P &'@  ' ",
"  QRST    @'''  "};
